<svg width="139" height="174" viewBox="0 0 139 174" fill="none" xmlns="http://www.w3.org/2000/svg">
<path d="M54.0178 80.547C61.5756 92.1364 58.5319 87.7702 60.5402 90.7689C62.5109 93.8048 64.8759 96.3934 67.6349 98.5348C70.3568 100.676 73.4544 102.314 76.9276 103.448C80.401 104.583 84.2128 105.157 88.3632 105.173C95.1684 105.197 101.363 103.463 106.947 99.9682C112.531 96.4737 116.982 91.3111 120.297 84.4806C123.612 77.65 125.288 69.2617 125.324 59.3157C125.361 49.3695 123.726 40.9691 120.424 34.1144C117.122 27.2597 112.634 22.0645 106.964 18.5291C101.293 14.9936 94.9056 13.2129 87.8013 13.187C81.2204 13.163 75.4197 14.544 70.399 17.3301C65.3408 20.1534 61.4002 24.14 58.577 29.2897C55.7163 34.4767 54.2731 40.585 54.2474 47.6146L49.9881 46.7017L84.5376 46.8277L84.4926 59.1668L40.7449 59.0072L40.7899 46.6681C40.8244 37.2082 42.8736 28.9895 46.9372 22.012C50.9636 15.0344 56.5173 9.63279 63.5983 5.80731C70.6418 2.01907 78.7253 0.141517 87.8487 0.174785C98.0192 0.211871 106.947 2.63752 114.633 7.45174C122.279 12.2657 128.238 19.0928 132.505 27.9327C136.736 36.7727 138.829 47.2499 138.785 59.3647C138.752 68.4508 137.507 76.6164 135.05 83.8613C132.555 91.1437 129.055 97.3379 124.55 102.444C120.044 107.55 114.721 111.457 108.579 114.164C102.436 116.872 95.6819 118.212 88.3158 118.185C82.2584 118.163 76.6156 117.226 71.3876 115.375C66.1219 113.561 61.4387 110.982 57.3378 107.64C53.1993 104.334 49.755 100.377 47.0048 95.7674C44.2546 91.1956 40.6488 86.1221 39.6221 80.547L54.0178 80.547Z" fill="black"/>
<path d="M83.3023 93.4059C82.0821 89.6249 80.4679 86.2351 78.4597 83.2364C76.489 80.2005 74.124 77.6119 71.3649 75.4704C68.6431 73.3291 65.5455 71.6913 62.0723 70.557C58.5989 69.4225 54.7871 68.8478 50.6367 68.8327C43.8315 68.8078 37.6369 70.5426 32.0527 74.037C26.4685 77.5315 22.0189 82.694 18.7035 89.5246C15.3881 96.3553 13.7123 104.744 13.676 114.69C13.6398 124.635 15.2731 133.036 18.5759 139.891C21.8788 146.746 26.3656 151.941 32.0362 155.476C37.7068 159.012 44.0943 160.793 51.1986 160.819C57.7795 160.843 63.5802 159.461 68.601 156.675C73.6591 153.852 77.5997 149.865 80.4229 144.715C83.2836 139.529 84.7268 133.421 84.7525 126.391L89.0117 127.304L54.4622 127.178L54.5072 114.839L98.2549 114.999L98.2099 127.338C98.1755 136.797 96.1263 145.016 92.0627 151.994C88.0363 158.971 82.4825 164.372 75.4016 168.198C68.3581 171.986 60.2746 173.863 51.1512 173.83C40.9809 173.793 32.053 171.368 24.3679 166.554C16.7201 161.739 10.7624 154.913 6.49447 146.072C2.2641 137.233 0.170978 126.755 0.215151 114.641C0.248285 105.554 1.4933 97.3889 3.95018 90.1439C6.44461 82.8616 9.94457 76.6674 14.4502 71.5612C18.9558 66.4549 24.2797 62.5482 30.4219 59.841C36.564 57.1337 43.318 55.7936 50.6841 55.8205C56.7415 55.8426 62.3843 56.7792 67.6123 58.6305C72.8779 60.4445 77.5612 63.0229 81.6621 66.3657C85.8006 69.6712 89.2448 73.6287 91.9951 78.2379C94.7453 82.8097 96.6338 87.8831 97.6605 93.4583L83.3023 93.4059Z" fill="black"/>
</svg>
