<svg width="63" height="69" viewBox="0 0 63 69" fill="none" xmlns="http://www.w3.org/2000/svg">
<path d="M29.0057 31.6773C29.5077 33.1499 30.1694 34.4695 30.9909 35.6358C31.7971 36.8169 32.7631 37.8229 33.8887 38.6539C34.9992 39.4849 36.2618 40.1191 37.6765 40.5565C39.0912 40.9939 40.6428 41.2129 42.3313 41.2129C45.0996 41.2129 47.6176 40.5274 49.8841 39.1569C52.1506 37.7864 53.9535 35.767 55.2918 33.099C56.6306 30.4306 57.2998 27.1574 57.2998 23.279C57.2998 19.4006 56.6228 16.1273 55.2691 13.4591C53.9154 10.7909 52.0819 8.77154 49.7699 7.40102C47.4575 6.03045 44.8564 5.34517 41.9662 5.34517C39.2889 5.34517 36.9311 5.89193 34.8927 6.98549C32.8391 8.0936 31.2419 9.65368 30.101 11.6657C28.9449 13.6924 28.3668 16.0763 28.3668 18.8174L26.6327 18.4675H40.6884V23.279H22.8906V18.4675C22.8906 14.7787 23.712 11.571 25.3549 8.84447C26.9826 6.11794 29.2339 4.00375 32.109 2.50201C34.9688 1.01481 38.2546 0.27124 41.9662 0.27124C46.1038 0.27124 49.7393 1.20438 52.8731 3.07066C55.9912 4.93694 58.4256 7.59058 60.1747 11.0315C61.9094 14.4725 62.7762 18.555 62.7762 23.279C62.7762 26.822 62.282 30.0078 61.2931 32.8362C60.2888 35.6797 58.8744 38.1001 57.0488 40.0974C55.2236 42.0946 53.0634 43.6259 50.5686 44.6901C48.0738 45.7548 45.3279 46.2869 42.3313 46.2869C39.867 46.2869 37.57 45.9294 35.4403 45.2153C33.2955 44.515 31.3864 43.5164 29.7131 42.2189C28.0245 40.9357 26.6175 39.3976 25.4918 37.604C24.3661 35.8252 23.5903 33.8496 23.1644 31.6773H29.0057Z" fill="white"/>
<path d="M34.6037 36.8096C34.1017 35.337 33.44 34.0174 32.6185 32.851C31.8123 31.67 30.8463 30.664 29.7207 29.8329C28.6102 29.0018 27.3476 28.3675 25.9329 27.9301C24.5182 27.4927 22.9666 27.274 21.2781 27.274C18.5096 27.274 15.992 27.9593 13.7254 29.3299C11.4588 30.7004 9.65628 32.7199 8.31765 35.3878C6.97897 38.0562 6.30965 41.3293 6.30965 45.2079C6.30965 49.0861 6.98658 52.3591 8.34044 55.0276C9.69429 57.696 11.5273 59.7154 13.8395 61.0859C16.1517 62.4564 18.7529 63.1418 21.6432 63.1418C24.3205 63.1418 26.6783 62.5945 28.7167 61.5016C30.7703 60.3935 32.3675 58.8332 33.5084 56.8207C34.6645 54.7948 35.2426 52.4109 35.2426 49.6695L36.9767 50.0196H22.921V45.2079H40.7188V50.0196C40.7188 53.7079 39.8974 56.9158 38.2546 59.6424C36.6269 62.3686 34.3755 64.4827 31.5005 65.9849C28.6406 67.4717 25.3549 68.2154 21.6432 68.2154C17.5056 68.2154 13.8699 67.2823 10.7363 65.4162C7.61784 63.5497 5.18398 60.8965 3.4346 57.4553C1.70044 54.0146 0.833389 49.9318 0.833389 45.2079C0.833389 41.6646 1.32777 38.4789 2.31653 35.6506C3.32053 32.8072 4.73523 30.3869 6.56062 28.3895C8.38605 26.3919 10.5462 24.861 13.0409 23.7966C15.5356 22.7322 18.2813 22.2001 21.2781 22.2001C23.7424 22.2001 26.0394 22.5573 28.169 23.2717C30.3139 23.9716 32.223 24.9703 33.8963 26.268C35.5849 27.5511 36.9919 29.0893 38.1176 30.8826C39.2432 32.6617 40.0191 34.6372 40.445 36.8096H34.6037Z" fill="white"/>
</svg>
