<svg width="297" height="97" viewBox="0 0 297 97" fill="none" xmlns="http://www.w3.org/2000/svg">
<path d="M32.0057 45.6773C32.5077 47.1499 33.1694 48.4695 33.9909 49.6358C34.7971 50.8169 35.7631 51.8229 36.8887 52.6539C37.9992 53.4849 39.2618 54.1191 40.6765 54.5565C42.0912 54.9939 43.6428 55.2129 45.3313 55.2129C48.0996 55.2129 50.6176 54.5274 52.8841 53.1569C55.1506 51.7864 56.9535 49.767 58.2918 47.099C59.6306 44.4306 60.2998 41.1574 60.2998 37.279C60.2998 33.4006 59.6228 30.1273 58.2691 27.4591C56.9154 24.7909 55.0819 22.7715 52.7699 21.401C50.4575 20.0305 47.8564 19.3452 44.9662 19.3452C42.2889 19.3452 39.9311 19.8919 37.8927 20.9855C35.8391 22.0936 34.2419 23.6537 33.101 25.6657C31.9449 27.6924 31.3668 30.0763 31.3668 32.8174L29.6327 32.4675H43.6884V37.279H25.8906V32.4675C25.8906 28.7787 26.712 25.571 28.3549 22.8445C29.9826 20.1179 32.2339 18.0038 35.109 16.502C37.9688 15.0148 41.2546 14.2712 44.9662 14.2712C49.1038 14.2712 52.7393 15.2044 55.8731 17.0707C58.9912 18.9369 61.4256 21.5906 63.1747 25.0315C64.9094 28.4725 65.7762 32.555 65.7762 37.279C65.7762 40.822 65.282 44.0078 64.2931 46.8362C63.2888 49.6797 61.8744 52.1001 60.0488 54.0974C58.2236 56.0946 56.0634 57.6259 53.5686 58.6901C51.0738 59.7548 48.3279 60.2869 45.3313 60.2869C42.867 60.2869 40.57 59.9294 38.4403 59.2153C36.2955 58.515 34.3864 57.5164 32.7131 56.2189C31.0245 54.9357 29.6175 53.3976 28.4918 51.604C27.3661 49.8252 26.5903 47.8496 26.1644 45.6773H32.0057Z" fill="white"/>
<path d="M37.6037 50.8096C37.1017 49.337 36.44 48.0174 35.6185 46.851C34.8123 45.67 33.8463 44.664 32.7207 43.8329C31.6102 43.0018 30.3476 42.3675 28.9329 41.9301C27.5182 41.4927 25.9666 41.274 24.2781 41.274C21.5096 41.274 18.992 41.9593 16.7254 43.3299C14.4588 44.7004 12.6563 46.7199 11.3176 49.3878C9.97897 52.0562 9.30965 55.3293 9.30965 59.2079C9.30965 63.0861 9.98658 66.3591 11.3404 69.0276C12.6943 71.696 14.5273 73.7154 16.8395 75.0859C19.1517 76.4564 21.7529 77.1418 24.6432 77.1418C27.3205 77.1418 29.6783 76.5945 31.7167 75.5016C33.7703 74.3935 35.3675 72.8332 36.5084 70.8207C37.6645 68.7948 38.2426 66.4109 38.2426 63.6695L39.9767 64.0196H25.921V59.2079H43.7188V64.0196C43.7188 67.7079 42.8974 70.9158 41.2546 73.6424C39.6269 76.3686 37.3755 78.4827 34.5005 79.9849C31.6406 81.4717 28.3549 82.2154 24.6432 82.2154C20.5056 82.2154 16.8699 81.2823 13.7363 79.4162C10.6178 77.5497 8.18398 74.8965 6.4346 71.4553C4.70044 68.0146 3.83339 63.9318 3.83339 59.2079C3.83339 55.6646 4.32777 52.4789 5.31653 49.6506C6.32053 46.8072 7.73523 44.3869 9.56062 42.3895C11.3861 40.3919 13.5462 38.861 16.0409 37.7966C18.5356 36.7322 21.2814 36.2001 24.2781 36.2001C26.7424 36.2001 29.0394 36.5573 31.169 37.2717C33.3139 37.9716 35.223 38.9703 36.8963 40.268C38.5849 41.5511 39.9919 43.0893 41.1176 44.8826C42.2432 46.6617 43.0191 48.6372 43.445 50.8096H37.6037Z" fill="white"/>
<path d="M98.7711 36.0285H102.725V55.4285H99.1052V52.1583C97.6202 53.3407 95.8753 54.2461 93.8706 54.8743C91.9029 55.4655 89.7868 55.7611 87.5222 55.7611C84.0324 55.7611 80.784 54.9851 77.7769 53.4331C74.8069 51.8811 72.4123 49.627 70.5932 46.6708C68.7741 43.7146 67.8645 40.2042 67.8645 36.1394C67.8645 32.3703 68.7555 28.9891 70.5375 25.996C72.3195 22.9659 74.7698 20.6009 77.8883 18.9011C81.0068 17.1643 84.5336 16.296 88.4689 16.296C91.4389 16.296 94.1676 16.7763 96.6549 17.7371C99.1423 18.6609 101.24 20.0466 102.948 21.8943L100.386 24.4994C97.3046 21.4693 93.3879 19.9543 88.6359 19.9543C85.4803 19.9543 82.6217 20.6563 80.0601 22.0605C77.5356 23.4278 75.5494 25.3493 74.1015 27.8251C72.6536 30.3009 71.9297 33.0723 71.9297 36.1394C71.9297 39.4282 72.6536 42.292 74.1015 44.7308C75.5865 47.1327 77.5356 48.9803 79.9487 50.2737C82.3989 51.5301 85.0163 52.1583 87.8006 52.1583C89.8425 52.1583 91.8101 51.8257 93.7035 51.1605C95.634 50.4584 97.3232 49.4053 98.7711 48.0011V36.0285ZM126.083 52.2137C127.902 52.2137 129.572 51.8996 131.094 51.2714C132.654 50.6063 133.972 49.6455 135.048 48.3891L137.276 50.9388C135.976 52.4908 134.361 53.6733 132.431 54.4863C130.5 55.2992 128.366 55.7057 126.027 55.7057C123.02 55.7057 120.347 55.0775 118.008 53.8211C115.669 52.5278 113.85 50.7541 112.55 48.5C111.251 46.2459 110.601 43.6962 110.601 40.8508C110.601 38.0055 111.214 35.4558 112.439 33.2017C113.701 30.9476 115.428 29.1923 117.618 27.936C119.808 26.6796 122.296 26.0514 125.08 26.0514C127.679 26.0514 130.018 26.6426 132.097 27.8251C134.213 29.0076 135.884 30.652 137.109 32.7583C138.371 34.8645 139.039 37.2664 139.113 39.964L115.056 44.62C115.799 46.9849 117.135 48.851 119.066 50.2183C121.034 51.5485 123.372 52.2137 126.083 52.2137ZM125.08 29.4325C123.038 29.4325 121.201 29.9129 119.567 30.8737C117.971 31.7975 116.708 33.1093 115.78 34.8091C114.889 36.472 114.444 38.3935 114.444 40.5737C114.444 41.128 114.462 41.5344 114.5 41.7931L135.16 37.8023C134.714 35.3634 133.582 33.368 131.763 31.816C129.944 30.227 127.716 29.4325 125.08 29.4325ZM150.947 31.9823C151.876 30.0238 153.249 28.5457 155.068 27.548C156.925 26.5503 159.208 26.0514 161.918 26.0514V29.876L160.971 29.8205C157.89 29.8205 155.477 30.7628 153.732 32.6474C151.987 34.532 151.115 37.1741 151.115 40.5737V55.4285H147.161V26.2731H150.947V31.9823ZM195.535 26.2731V55.4285H191.748V49.664C190.56 51.6224 188.982 53.119 187.015 54.1537C185.084 55.1883 182.894 55.7057 180.444 55.7057C177.696 55.7057 175.209 55.0775 172.982 53.8211C170.754 52.5647 169.009 50.8095 167.747 48.5554C166.485 46.3013 165.854 43.7331 165.854 40.8508C165.854 37.9685 166.485 35.4003 167.747 33.1463C169.009 30.8922 170.754 29.1554 172.982 27.936C175.209 26.6796 177.696 26.0514 180.444 26.0514C182.82 26.0514 184.954 26.5503 186.848 27.548C188.778 28.5087 190.356 29.9314 191.581 31.816V26.2731H195.535ZM180.778 52.2137C182.82 52.2137 184.657 51.7518 186.291 50.828C187.962 49.8672 189.261 48.5184 190.189 46.7817C191.154 45.0449 191.637 43.068 191.637 40.8508C191.637 38.6337 191.154 36.6567 190.189 34.92C189.261 33.1832 187.962 31.8529 186.291 30.9291C184.657 29.9683 182.82 29.488 180.778 29.488C178.699 29.488 176.824 29.9683 175.153 30.9291C173.52 31.8529 172.221 33.1832 171.255 34.92C170.327 36.6567 169.863 38.6337 169.863 40.8508C169.863 43.068 170.327 45.0449 171.255 46.7817C172.221 48.5184 173.52 49.8672 175.153 50.828C176.824 51.7518 178.699 52.2137 180.778 52.2137ZM233.276 14.3005V55.4285H229.49V49.664C228.302 51.6224 226.724 53.119 224.756 54.1537C222.826 55.1883 220.635 55.7057 218.185 55.7057C215.438 55.7057 212.95 55.0775 210.723 53.8211C208.495 52.5647 206.751 50.8095 205.488 48.5554C204.226 46.3013 203.595 43.7331 203.595 40.8508C203.595 37.9685 204.226 35.4003 205.488 33.1463C206.751 30.8922 208.495 29.1554 210.723 27.936C212.95 26.6796 215.438 26.0514 218.185 26.0514C220.561 26.0514 222.696 26.5503 224.589 27.548C226.52 28.5087 228.097 29.9314 229.323 31.816V14.3005H233.276ZM218.519 52.2137C220.561 52.2137 222.399 51.7518 224.032 50.828C225.703 49.8672 227.002 48.5184 227.93 46.7817C228.896 45.0449 229.378 43.068 229.378 40.8508C229.378 38.6337 228.896 36.6567 227.93 34.92C227.002 33.1832 225.703 31.8529 224.032 30.9291C222.399 29.9683 220.561 29.488 218.519 29.488C216.44 29.488 214.565 29.9683 212.895 30.9291C211.261 31.8529 209.962 33.1832 208.997 34.92C208.068 36.6567 207.604 38.6337 207.604 40.8508C207.604 43.068 208.068 45.0449 208.997 46.7817C209.962 48.5184 211.261 49.8672 212.895 50.828C214.565 51.7518 216.44 52.2137 218.519 52.2137ZM256.26 55.7057C253.439 55.7057 250.896 55.0775 248.631 53.8211C246.367 52.5278 244.585 50.7541 243.285 48.5C241.986 46.2459 241.336 43.6962 241.336 40.8508C241.336 38.0055 241.986 35.4558 243.285 33.2017C244.585 30.9476 246.367 29.1923 248.631 27.936C250.896 26.6796 253.439 26.0514 256.26 26.0514C259.082 26.0514 261.625 26.6796 263.89 27.936C266.154 29.1923 267.918 30.9476 269.18 33.2017C270.479 35.4558 271.129 38.0055 271.129 40.8508C271.129 43.6962 270.479 46.2459 269.18 48.5C267.918 50.7541 266.154 52.5278 263.89 53.8211C261.625 55.0775 259.082 55.7057 256.26 55.7057ZM256.26 52.2137C258.339 52.2137 260.196 51.7518 261.829 50.828C263.5 49.8672 264.799 48.5184 265.727 46.7817C266.655 45.0449 267.119 43.068 267.119 40.8508C267.119 38.6337 266.655 36.6567 265.727 34.92C264.799 33.1832 263.5 31.8529 261.829 30.9291C260.196 29.9683 258.339 29.488 256.26 29.488C254.181 29.488 252.307 29.9683 250.636 30.9291C249.002 31.8529 247.703 33.1832 246.738 34.92C245.81 36.6567 245.346 38.6337 245.346 40.8508C245.346 43.068 245.81 45.0449 246.738 46.7817C247.703 48.5184 249.002 49.8672 250.636 50.828C252.307 51.7518 254.181 52.2137 256.26 52.2137ZM282.988 31.9823C283.916 30.0238 285.29 28.5457 287.109 27.548C288.965 26.5503 291.248 26.0514 293.959 26.0514V29.876L293.012 29.8205C289.93 29.8205 287.517 30.7628 285.772 32.6474C284.028 34.532 283.155 37.1741 283.155 40.5737V55.4285H279.201V26.2731H282.988V31.9823Z" fill="white"/>
<path d="M119.988 74.8286H122.624V87.7619H120.211V85.5817C119.221 86.3702 118.058 86.9735 116.721 87.3924C115.409 87.7864 113.998 87.9836 112.489 87.9836C110.162 87.9836 107.997 87.4663 105.992 86.4316C104.012 85.397 102.415 83.8944 101.203 81.9235C99.9902 79.9525 99.3836 77.6125 99.3836 74.9025C99.3836 72.3897 99.9776 70.1356 101.166 68.1402C102.354 66.1203 103.987 64.5434 106.066 63.4103C108.145 62.2523 110.497 61.6735 113.12 61.6735C115.1 61.6735 116.919 61.9936 118.577 62.6343C120.235 63.25 121.634 64.1738 122.772 65.4057L121.065 67.1425C119.01 65.1226 116.399 64.1124 113.231 64.1124C111.128 64.1124 109.222 64.5803 107.514 65.5166C105.831 66.4279 104.507 67.7093 103.542 69.3596C102.576 71.01 102.094 72.8576 102.094 74.9025C102.094 77.0952 102.576 79.0042 103.542 80.6301C104.531 82.2315 105.831 83.463 107.44 84.3254C109.073 85.1628 110.818 85.5817 112.674 85.5817C114.035 85.5817 115.347 85.36 116.61 84.9166C117.896 84.4487 119.023 83.7466 119.988 82.8103V74.8286ZM147.662 68.325V87.7619H145.138V83.9189C144.346 85.2247 143.294 86.2224 141.982 86.912C140.695 87.6016 139.235 87.9467 137.602 87.9467C135.77 87.9467 134.112 87.5277 132.627 86.6903C131.142 85.8529 129.978 84.6824 129.137 83.1798C128.296 81.6773 127.875 79.965 127.875 78.0435C127.875 76.1219 128.296 74.4096 129.137 72.9071C129.978 71.4045 131.142 70.2465 132.627 69.4335C134.112 68.5961 135.77 68.1772 137.602 68.1772C139.185 68.1772 140.609 68.5097 141.871 69.1749C143.158 69.8155 144.21 70.7638 145.027 72.0202V68.325H147.662ZM137.824 85.6187C139.185 85.6187 140.41 85.3106 141.5 84.6949C142.613 84.0542 143.48 83.1554 144.098 81.9974C144.742 80.8394 145.064 79.5215 145.064 78.0435C145.064 76.5654 144.742 75.2475 144.098 74.0896C143.48 72.9316 142.613 72.0447 141.5 71.429C140.41 70.7883 139.185 70.4682 137.824 70.4682C136.438 70.4682 135.188 70.7883 134.075 71.429C132.985 72.0447 132.12 72.9316 131.476 74.0896C130.857 75.2475 130.548 76.5654 130.548 78.0435C130.548 79.5215 130.857 80.8394 131.476 81.9974C132.12 83.1554 132.985 84.0542 134.075 84.6949C135.188 85.3106 136.438 85.6187 137.824 85.6187ZM165.064 68.1772C166.895 68.1772 168.554 68.5961 170.039 69.4335C171.524 70.2465 172.687 71.4045 173.529 72.9071C174.37 74.4096 174.791 76.1219 174.791 78.0435C174.791 79.965 174.37 81.6773 173.529 83.1798C172.687 84.6824 171.524 85.8529 170.039 86.6903C168.554 87.5277 166.895 87.9467 165.064 87.9467C163.431 87.9467 161.958 87.6016 160.646 86.912C159.359 86.2224 158.32 85.2247 157.528 83.9189V87.7619H155.003V60.3433H157.639V72.0202C158.456 70.7638 159.496 69.8155 160.758 69.1749C162.045 68.5097 163.48 68.1772 165.064 68.1772ZM164.879 85.6187C166.24 85.6187 167.477 85.3106 168.591 84.6949C169.705 84.0542 170.571 83.1554 171.19 81.9974C171.833 80.8394 172.155 79.5215 172.155 78.0435C172.155 76.5654 171.833 75.2475 171.19 74.0896C170.571 72.9316 169.705 72.0447 168.591 71.429C167.477 70.7883 166.24 70.4682 164.879 70.4682C163.492 70.4682 162.243 70.7883 161.129 71.429C160.04 72.0447 159.173 72.9316 158.53 74.0896C157.911 75.2475 157.602 76.5654 157.602 78.0435C157.602 79.5215 157.911 80.8394 158.53 81.9974C159.173 83.1554 160.04 84.0542 161.129 84.6949C162.243 85.3106 163.492 85.6187 164.879 85.6187ZM197.984 68.325V87.7619H195.46V83.9189C194.668 85.2247 193.616 86.2224 192.304 86.912C191.017 87.6016 189.557 87.9467 187.924 87.9467C186.092 87.9467 184.434 87.5277 182.949 86.6903C181.464 85.8529 180.3 84.6824 179.459 83.1798C178.617 81.6773 178.197 79.965 178.197 78.0435C178.197 76.1219 178.617 74.4096 179.459 72.9071C180.3 71.4045 181.464 70.2465 182.949 69.4335C184.434 68.5961 186.092 68.1772 187.924 68.1772C189.507 68.1772 190.931 68.5097 192.193 69.1749C193.48 69.8155 194.532 70.7638 195.349 72.0202V68.325H197.984ZM188.146 85.6187C189.507 85.6187 190.732 85.3106 191.822 84.6949C192.935 84.0542 193.801 83.1554 194.42 81.9974C195.064 80.8394 195.386 79.5215 195.386 78.0435C195.386 76.5654 195.064 75.2475 194.42 74.0896C193.801 72.9316 192.935 72.0447 191.822 71.429C190.732 70.7883 189.507 70.4682 188.146 70.4682C186.76 70.4682 185.51 70.7883 184.397 71.429C183.307 72.0447 182.441 72.9316 181.798 74.0896C181.179 75.2475 180.87 76.5654 180.87 78.0435C180.87 79.5215 181.179 80.8394 181.798 81.9974C182.441 83.1554 183.307 84.0542 184.397 84.6949C185.51 85.3106 186.76 85.6187 188.146 85.6187ZM207.849 72.1311C208.468 70.8253 209.384 69.84 210.597 69.1749C211.834 68.5097 213.356 68.1772 215.163 68.1772V70.7269L214.532 70.6899C212.478 70.6899 210.869 71.3181 209.706 72.5745C208.543 73.8309 207.961 75.5921 207.961 77.8587V87.7619H205.325V68.325H207.849V72.1311ZM219.936 68.325H222.572V87.7619H219.936V68.325ZM221.272 64.0755C220.728 64.0755 220.27 63.8907 219.899 63.5212C219.528 63.1516 219.342 62.7082 219.342 62.1909C219.342 61.698 219.528 61.2671 219.899 60.8975C220.27 60.528 220.728 60.3433 221.272 60.3433C221.817 60.3433 222.275 60.528 222.646 60.8975C223.017 61.2426 223.203 61.6611 223.203 62.1539C223.203 62.6957 223.017 63.1516 222.646 63.5212C222.275 63.8907 221.817 64.0755 221.272 64.0755ZM239.521 86.5794C239.026 87.0229 238.42 87.3679 237.702 87.6141C236.984 87.8358 236.23 87.9467 235.438 87.9467C233.606 87.9467 232.195 87.4538 231.205 86.4686C230.215 85.4833 229.72 84.0912 229.72 82.293V64.0755H232.356V68.325H238.259V70.5421H232.356V82.1452C232.356 83.3032 232.641 84.19 233.21 84.8057C233.779 85.397 234.608 85.6926 235.697 85.6926C236.885 85.6926 237.851 85.36 238.593 84.6949L239.521 86.5794ZM251.592 87.9467C249.711 87.9467 248.016 87.5277 246.506 86.6903C244.996 85.8279 243.808 84.6455 242.942 83.1429C242.076 81.6403 241.642 79.9405 241.642 78.0435C241.642 76.1464 242.076 74.4466 242.942 72.944C243.808 71.4414 244.996 70.271 246.506 69.4335C248.016 68.5961 249.711 68.1772 251.592 68.1772C253.473 68.1772 255.169 68.5961 256.678 69.4335C258.188 70.271 259.364 71.4414 260.205 72.944C261.071 74.4466 261.504 76.1464 261.504 78.0435C261.504 79.9405 261.071 81.6403 260.205 83.1429C259.364 84.6455 258.188 85.8279 256.678 86.6903C255.169 87.5277 253.473 87.9467 251.592 87.9467ZM251.592 85.6187C252.978 85.6187 254.216 85.3106 255.304 84.6949C256.418 84.0542 257.285 83.1554 257.903 81.9974C258.522 80.8394 258.831 79.5215 258.831 78.0435C258.831 76.5654 258.522 75.2475 257.903 74.0896C257.285 72.9316 256.418 72.0447 255.304 71.429C254.216 70.7883 252.978 70.4682 251.592 70.4682C250.206 70.4682 248.956 70.7883 247.842 71.429C246.754 72.0447 245.887 72.9316 245.244 74.0896C244.625 75.2475 244.315 76.5654 244.315 78.0435C244.315 79.5215 244.625 80.8394 245.244 81.9974C245.887 83.1554 246.754 84.0542 247.842 84.6949C248.956 85.3106 250.206 85.6187 251.592 85.6187Z" fill="white"/>
<path d="M81.3393 60.0895V71.9615H80.2513V70.2975C79.91 70.8629 79.4567 71.2949 78.8913 71.5935C78.3367 71.8922 77.7073 72.0415 77.0033 72.0415C76.214 72.0415 75.4993 71.8602 74.8593 71.4975C74.2193 71.1349 73.718 70.6282 73.3553 69.9775C72.9927 69.3269 72.8113 68.5855 72.8113 67.7535C72.8113 66.9215 72.9927 66.1802 73.3553 65.5295C73.718 64.8789 74.2193 64.3775 74.8593 64.0255C75.4993 63.6629 76.214 63.4815 77.0033 63.4815C77.686 63.4815 78.2993 63.6255 78.8433 63.9135C79.398 64.1909 79.8513 64.6015 80.2033 65.1455V60.0895H81.3393ZM77.0993 71.0335C77.686 71.0335 78.214 70.9002 78.6833 70.6335C79.1633 70.3562 79.5367 69.9669 79.8033 69.4655C80.0807 68.9642 80.2193 68.3935 80.2193 67.7535C80.2193 67.1135 80.0807 66.5429 79.8033 66.0415C79.5367 65.5402 79.1633 65.1562 78.6833 64.8895C78.214 64.6122 77.686 64.4735 77.0993 64.4735C76.502 64.4735 75.9633 64.6122 75.4833 64.8895C75.014 65.1562 74.6407 65.5402 74.3633 66.0415C74.0967 66.5429 73.9633 67.1135 73.9633 67.7535C73.9633 68.3935 74.0967 68.9642 74.3633 69.4655C74.6407 69.9669 75.014 70.3562 75.4833 70.6335C75.9633 70.9002 76.502 71.0335 77.0993 71.0335ZM88.1031 71.0335C88.6257 71.0335 89.1057 70.9429 89.5431 70.7615C89.9911 70.5695 90.3697 70.2922 90.6791 69.9295L91.3191 70.6655C90.9457 71.1135 90.4817 71.4549 89.9271 71.6895C89.3724 71.9242 88.7591 72.0415 88.0871 72.0415C87.2231 72.0415 86.4551 71.8602 85.7831 71.4975C85.1111 71.1242 84.5884 70.6122 84.2151 69.9615C83.8417 69.3109 83.6551 68.5749 83.6551 67.7535C83.6551 66.9322 83.8311 66.1962 84.1831 65.5455C84.5457 64.8949 85.0417 64.3882 85.6711 64.0255C86.3004 63.6629 87.0151 63.4815 87.8151 63.4815C88.5617 63.4815 89.2337 63.6522 89.8311 63.9935C90.4391 64.3349 90.9191 64.8095 91.2711 65.4175C91.6337 66.0255 91.8257 66.7189 91.8471 67.4975L84.9351 68.8415C85.1484 69.5242 85.5324 70.0629 86.0871 70.4575C86.6524 70.8415 87.3244 71.0335 88.1031 71.0335ZM87.8151 64.4575C87.2284 64.4575 86.7004 64.5962 86.2311 64.8735C85.7724 65.1402 85.4097 65.5189 85.1431 66.0095C84.8871 66.4895 84.7591 67.0442 84.7591 67.6735C84.7591 67.8335 84.7644 67.9509 84.7751 68.0255L90.7111 66.8735C90.5831 66.1695 90.2577 65.5935 89.7351 65.1455C89.2124 64.6869 88.5724 64.4575 87.8151 64.4575Z" fill="white"/>
</svg>
